
<svg width="2647px" height="821px" viewBox="-747 -285 2647 821" version="1.1" xmlns="http://www.w3.org/2000/svg" xmlns:xlink="http://www.w3.org/1999/xlink">
    <!-- Generator: Sketch 41.2 (35397) - http://www.bohemiancoding.com/sketch -->
    <desc>Created with Sketch.</desc>
    <defs></defs>
    <g id="noun_28299_cc" stroke="none" stroke-width="1" fill="none" fill-rule="evenodd" transform="translate(-747.000000, -285.000000)">
        <path d="M0,693.995481 C0,676.002115 14.6237143,661.457596 32.571,661.457596 L34.9045714,661.457596 C48.6231429,545.709231 124.032857,449.466635 226.526143,407.797788 C194.676429,437.975192 117.060429,525.440192 117.060429,661.952308 C117.060429,665.627308 120.044571,668.595577 123.707571,668.595577 C127.370571,668.595577 130.354714,665.627308 130.354714,661.952308 C130.354714,497.948365 246.891857,407.402019 248.065714,406.497404 C250.979143,404.264135 251.544857,400.094423 249.338571,397.182692 C247.669714,395.034231 245.053286,394.666731 242.578286,395.232115 L242.578286,352.474904 L280.551857,352.474904 C280.551857,346.453558 285.388714,341.59125 291.456,341.59125 L291.456,216.839135 C285.374571,216.839135 280.551857,211.962692 280.551857,206.040288 C280.551857,200.018942 285.388714,195.156635 291.456,195.156635 L315.767571,195.156635 L315.767571,59.6056731 L329.373,59.6056731 L329.373,10.7988462 C329.401286,4.7775 334.294714,0 340.263,0 C346.231286,0 351.124714,4.7775 351.124714,10.7988462 L351.124714,59.6056731 L364.730143,59.6056731 L364.730143,195.156635 L389.041714,195.156635 C395.066571,195.156635 399.96,200.004808 399.96,206.040288 C399.96,211.962692 395.080714,216.839135 389.041714,216.839135 L389.041714,341.59125 C395.066571,341.59125 399.96,346.439423 399.96,352.474904 L437.933571,352.474904 L437.933571,401.211058 C547.823571,438.597115 631.068429,539.207308 645.607286,661.457596 L647.898429,661.457596 C665.874,661.457596 680.526,676.002115 680.526,693.995481 C680.526,711.988846 665.874,726.5475 647.898429,726.5475 L32.571,726.5475 C14.6237143,726.5475 0,711.988846 0,693.995481 Z M330.264,320.770962 C330.264,326.269327 334.733143,330.735865 340.234714,330.735865 C345.750429,330.735865 350.205429,326.269327 350.205429,320.770962 L350.205429,254.31 C350.205429,248.811635 345.736286,244.345096 340.234714,244.345096 C334.733143,244.345096 330.264,248.811635 330.264,254.31 L330.264,320.770962 Z M276.662571,661.952308 C276.662571,665.627308 279.646714,668.595577 283.309714,668.595577 C286.972714,668.595577 289.956857,665.627308 289.956857,661.952308 C289.956857,495.036635 303.675429,403.119231 303.802714,402.200481 C304.354286,398.582019 301.851,395.175577 298.244571,394.638462 C294.03,394.044808 291.201429,396.589038 290.664,400.2075 C290.536714,401.12625 276.662571,493.905865 276.662571,661.952308 Z M196.868571,661.952308 C196.868571,665.627308 199.852714,668.595577 203.515714,668.595577 C207.178714,668.595577 210.162857,665.627308 210.162857,661.952308 C210.162857,496.916538 275.347286,406.030962 275.997857,405.140481 C278.175857,402.186346 277.525286,398.030769 274.569429,395.839904 C271.684286,393.691442 267.483857,394.313365 265.291714,397.2675 C262.491429,401.069712 196.868571,492.237981 196.868571,661.952308 Z" id="Shape" fill="#555555"></path>
    </g>
    <g id="noun_676653_cc" stroke="none" stroke-width="1" fill="none" fill-rule="evenodd" transform="translate(-66.185032, 22.823048) rotate(-48.000000) translate(66.185032, -22.823048) translate(-220.185032, -266.176952)">
        <path d="M300.572558,213.552253 C287.213137,136.327166 252.096945,66.9803199 196.170592,7.43547203 C193.586042,4.50180675 190.412728,2.14523104 186.857167,0.51910893 C186.156301,0.270706347 185.417416,0.146697676 184.673856,0.152679097 C181.055361,0.152679097 176.810882,2.83983121 174.20007,7.05377429 C172.673279,9.45083611 169.955591,13.9243337 177.8491,22.321684 C247.913538,97.409264 282.922855,186.115819 284.877147,293.525564 L284.877147,294.502711 L284.800808,295.479857 C284.556521,298.533439 284.358038,301.983986 284.12902,305.739892 C283.548839,315.480818 282.815979,327.603539 281.075438,339.726259 C269.349683,422.737884 234.233491,495.871172 176.444452,557.126026 C171.467114,562.393454 171.680865,568.302135 176.994097,573.325278 C182.30733,578.34842 188.506101,578.241545 193.513976,573.050455 C196.491218,569.996873 198.934084,567.386061 201.14793,564.775248 C289.885022,463.197845 323.306476,345.05476 300.572558,213.552253 Z" id="Shape" fill="#555555"></path>
        <path d="M190.735216,288.655101 L190.628341,287.12831 C190.475662,284.944999 190.292447,282.471598 190.185571,279.860785 C187.131989,205.200707 159.573412,139.65557 108.257968,85.0269892 C106.135728,82.7673386 102.868396,80.0649186 99.3262405,79.9580432 L99.1124898,79.9580432 C95.6772101,79.9580432 92.3793416,82.3703729 90.2112984,84.4315407 C85.0507449,89.286736 85.4324427,94.9511305 91.3258558,101.226241 C142.549693,155.992234 167.986031,220.483884 166.932545,292.914848 C165.924863,362.21589 140.183167,424.218871 90.4403171,477.167982 C87.2035202,480.61853 83.7682405,486.053906 91.3563917,493.306163 C93.503627,495.619813 96.4778211,496.991674 99.6315987,497.12314 C102.672966,496.871168 105.49761,495.447897 107.50984,493.153484 C161.436097,436.555343 188.65878,369.66663 190.735216,288.655101 Z" id="Shape" fill="#555555"></path>
        <path d="M73.2944545,288.639833 C71.8745389,238.515286 54.8202837,197.79577 21.1545428,164.175833 C19.0643911,161.779232 16.0863862,160.339863 12.9098715,160.190909 C9.55231009,160.416912 6.41214333,161.932288 4.14609135,164.42012 C-0.541156928,169.000493 -0.43428156,175.351943 4.42091373,180.649908 C5.4743995,181.795001 6.52788527,182.909558 7.59663895,184.039384 C10.9160181,187.439775 14.060185,191.006901 17.0169392,194.726921 C65.0497832,256.897849 60.1335163,338.168932 4.80261147,396.950385 C1.24518851,400.736826 -1.67098225,406.5539 4.63466447,412.798475 C10.3143269,418.417066 15.9481856,418.462869 21.4293652,412.966422 C54.7592121,379.422824 71.7371277,338.749113 73.2944545,288.639833 Z" id="Shape" fill="#555555"></path>
    </g>
    <text id="CallCongress" stroke="none" fill="none" font-family="WarnockPro-Bold, Warnock Pro" font-size="400" font-weight="bold">
        <tspan x="-461" y="430" fill="#0BBCD6">Call</tspan>
        <tspan x="259.8" y="430" fill="#E6625E">Congress</tspan>
    </text>
</svg>